<svg id="Layer_1" data-name="Layer 1" xmlns="http://www.w3.org/2000/svg" viewBox="0 0 440.07 440.07"><defs><style>.cls-1{fill:#6bc070;}</style></defs><title>bullet</title><path class="cls-1" d="M223.06,443.71C101.7,443.71,3,345,3,223.69S101.7,3.63,223.06,3.63s220,98.7,220,220.06S344.38,443.71,223.06,443.71Zm0-406.48C120.25,37.23,36.6,120.88,36.6,223.69s83.65,186.42,186.46,186.42S409.47,326.5,409.47,223.69,325.87,37.23,223.06,37.23Z" transform="translate(-3 -3.63)"/><path class="cls-1" d="M247.52,126.31a22.18,22.18,0,1,0,22.18,22.18A22.2,22.2,0,0,0,247.52,126.31Zm0,29.16a7,7,0,1,1,7-7A7,7,0,0,1,247.52,155.47Z" transform="translate(-3 -3.63)"/><path class="cls-1" d="M278,75.7C254.51,65.51,226.1,67.89,203.79,82c-20.42,12.87-32.6,33.06-33.41,55.44,0,.34,0,.69,0,240.51h30.4V353h13.75V313.09H200.77v-34.8c15.3-11.47,43.43-32.91,64.8-49.18,13.27-10.11,23.92-18.22,27.17-20.65,19.14-14.33,30.63-35.89,31.52-59.17A77.61,77.61,0,0,0,278,75.7Zm-3.43,108.42c-3.28,2.45-14,10.61-27.38,20.8-14.38,11-31.86,24.27-46.37,35.27V138.45c.44-12.14,7.45-23.35,19.23-30.78a51.34,51.34,0,0,1,27.21-7.87,46.53,46.53,0,0,1,27.31,84.32Z" transform="translate(-3 -3.63)"/></svg>